<svg xmlns="http://www.w3.org/2000/svg" xmlns:xlink="http://www.w3.org/1999/xlink" width="500" zoomAndPan="magnify" viewBox="0 0 375 374.999991" height="500" preserveAspectRatio="xMidYMid meet" version="1.0"><defs><g/><clipPath id="id1"><path d="M 83.285156 160.285156 L 231 160.285156 L 231 180 L 83.285156 180 Z M 83.285156 160.285156 " clip-rule="nonzero"/></clipPath></defs><rect x="-37.5" width="450" fill="#ffffff" y="-37.499999" height="449.999989" fill-opacity="1"/><rect x="-37.5" width="450" fill="#ffffff" y="-37.499999" height="449.999989" fill-opacity="1"/><rect x="-37.5" width="450" fill="#ffffff" y="-37.499999" height="449.999989" fill-opacity="1"/><rect x="-37.5" width="450" fill="#ffffff" y="-37.499999" height="449.999989" fill-opacity="1"/><g fill="#008037" fill-opacity="1"><g transform="translate(142.946172, 187.532222)"><g><path d="M 1.828125 19.53125 C -1.234375 19.53125 -4.140625 19.234375 -6.890625 18.640625 L -6.890625 5.578125 C -5.984375 5.742188 -5.019531 5.929688 -4 6.140625 C -2.976562 6.359375 -1.875 6.46875 -0.6875 6.46875 C 2.09375 6.46875 4.078125 5.628906 5.265625 3.953125 C 6.460938 2.285156 7.0625 -0.578125 7.0625 -4.640625 L 7.0625 -62.203125 L 23.953125 -62.203125 L 23.953125 -6.078125 C 23.953125 2.335938 22.109375 8.707031 18.421875 13.03125 C 14.734375 17.363281 9.203125 19.53125 1.828125 19.53125 Z M 1.828125 19.53125 "/></g></g></g><g clip-path="url(#id1)"><path fill="#081408" d="M 135.765625 167.5625 C 135.433594 167.488281 135.136719 167.410156 134.886719 167.324219 C 131.566406 166.058594 127.1875 161.609375 123.6875 160.945312 C 120.191406 160.285156 84.539062 162.859375 84.539062 162.859375 C 84.539062 162.859375 83.285156 162.882812 83.285156 163.828125 C 83.285156 164.773438 85.054688 164.84375 85.054688 164.84375 C 85.054688 164.84375 115.433594 164.304688 116.316406 164.347656 C 117.199219 164.390625 117.59375 164.679688 117.59375 165.625 C 117.59375 166.570312 116.175781 166.476562 116.175781 166.476562 L 85.222656 167.378906 C 85.222656 167.378906 83.523438 167.332031 83.570312 168.230469 C 83.617188 169.125 85.222656 169.078125 85.222656 169.078125 L 116.316406 168.886719 C 116.316406 168.886719 117.671875 169.003906 117.710938 170.105469 C 117.75 171.207031 116.316406 171.214844 116.316406 171.214844 L 85.222656 171.691406 C 85.222656 171.691406 83.617188 171.640625 83.570312 172.539062 C 83.523438 173.4375 85.222656 173.390625 85.222656 173.390625 L 116.175781 174.027344 C 116.175781 174.027344 117.59375 173.933594 117.59375 174.875 C 117.59375 175.820312 117.222656 176.050781 116.316406 176.152344 C 115.414062 176.253906 84.65625 176.058594 84.65625 176.058594 C 84.65625 176.058594 83.285156 176.128906 83.285156 177.074219 C 83.285156 178.019531 84.9375 178.042969 84.9375 178.042969 C 84.9375 178.042969 120.265625 180.523438 123.6875 179.554688 C 129.828125 177.820312 131.5 174.546875 134.886719 173.175781 C 135.117188 173.097656 135.378906 173.023438 135.660156 172.953125 C 135.660156 172.953125 135.660156 172.949219 135.660156 172.949219 C 149.140625 169.558594 219.28125 176.757812 223.066406 176.292969 C 232.679688 175.117188 233.28125 164.890625 223.066406 164.207031 C 219.28125 163.953125 148.339844 170.328125 135.765625 167.5625 " fill-opacity="1" fill-rule="nonzero"/></g><g fill="#008037" fill-opacity="1"><g transform="translate(173.625857, 192.49361)"><g><path d="M 39.984375 0 L 28.734375 0 L 28.734375 -16.890625 L 15.71875 -16.890625 L 15.71875 0 L 4.484375 0 L 4.484375 -41.421875 L 15.71875 -41.421875 L 15.71875 -26.0625 L 28.734375 -26.0625 L 28.734375 -41.421875 L 39.984375 -41.421875 Z M 39.984375 0 "/></g></g></g><g fill="#000000" fill-opacity="1"><g transform="translate(173.643424, 212.003066)"><g><path d="M 0.234375 3.25 C -0.296875 3.25 -0.753906 3.191406 -1.140625 3.078125 L -1.140625 1.125 C -0.742188 1.226562 -0.378906 1.28125 -0.046875 1.28125 C 0.460938 1.28125 0.828125 1.117188 1.046875 0.796875 C 1.273438 0.484375 1.390625 -0.0078125 1.390625 -0.6875 L 1.390625 -11.03125 L 3.734375 -11.03125 L 3.734375 -0.703125 C 3.734375 0.578125 3.4375 1.554688 2.84375 2.234375 C 2.257812 2.910156 1.390625 3.25 0.234375 3.25 Z M 0.234375 3.25 "/></g></g></g><g fill="#000000" fill-opacity="1"><g transform="translate(178.75527, 212.003066)"><g><path d="M 10.375 -11.03125 L 10.375 -3.890625 C 10.375 -3.078125 10.1875 -2.363281 9.8125 -1.75 C 9.445312 -1.132812 8.921875 -0.660156 8.234375 -0.328125 C 7.546875 -0.00390625 6.734375 0.15625 5.796875 0.15625 C 4.378906 0.15625 3.273438 -0.207031 2.484375 -0.9375 C 1.703125 -1.664062 1.3125 -2.660156 1.3125 -3.921875 L 1.3125 -11.03125 L 3.640625 -11.03125 L 3.640625 -4.28125 C 3.640625 -3.425781 3.8125 -2.800781 4.15625 -2.40625 C 4.5 -2.007812 5.066406 -1.8125 5.859375 -1.8125 C 6.617188 -1.8125 7.171875 -2.007812 7.515625 -2.40625 C 7.859375 -2.8125 8.03125 -3.441406 8.03125 -4.296875 L 8.03125 -11.03125 Z M 10.375 -11.03125 "/></g></g></g><g fill="#000000" fill-opacity="1"><g transform="translate(190.426564, 212.003066)"><g><path d="M 1.390625 0 L 1.390625 -11.03125 L 3.734375 -11.03125 L 3.734375 0 Z M 1.390625 0 "/></g></g></g><g fill="#000000" fill-opacity="1"><g transform="translate(195.53841, 212.003066)"><g><path d="M 6.078125 -9.25 C 5.191406 -9.25 4.507812 -8.914062 4.03125 -8.25 C 3.550781 -7.59375 3.3125 -6.671875 3.3125 -5.484375 C 3.3125 -3.023438 4.234375 -1.796875 6.078125 -1.796875 C 6.847656 -1.796875 7.785156 -1.988281 8.890625 -2.375 L 8.890625 -0.421875 C 7.984375 -0.0351562 6.972656 0.15625 5.859375 0.15625 C 4.253906 0.15625 3.023438 -0.328125 2.171875 -1.296875 C 1.316406 -2.273438 0.890625 -3.675781 0.890625 -5.5 C 0.890625 -6.644531 1.097656 -7.648438 1.515625 -8.515625 C 1.941406 -9.378906 2.546875 -10.039062 3.328125 -10.5 C 4.109375 -10.957031 5.023438 -11.1875 6.078125 -11.1875 C 7.148438 -11.1875 8.222656 -10.925781 9.296875 -10.40625 L 8.546875 -8.515625 C 8.140625 -8.710938 7.722656 -8.882812 7.296875 -9.03125 C 6.878906 -9.175781 6.472656 -9.25 6.078125 -9.25 Z M 6.078125 -9.25 "/></g></g></g><g fill="#000000" fill-opacity="1"><g transform="translate(205.377592, 212.003066)"><g><path d="M 4.828125 -6.484375 L 7.125 -11.03125 L 9.640625 -11.03125 L 5.984375 -4.296875 L 5.984375 0 L 3.65625 0 L 3.65625 -4.21875 L 0 -11.03125 L 2.53125 -11.03125 Z M 4.828125 -6.484375 "/></g></g></g><g fill="#000000" fill-opacity="1"><g transform="translate(215.013195, 212.003066)"><g><path d="M 10.421875 0 L 8.09375 0 L 8.09375 -4.765625 L 3.734375 -4.765625 L 3.734375 0 L 1.390625 0 L 1.390625 -11.03125 L 3.734375 -11.03125 L 3.734375 -6.703125 L 8.09375 -6.703125 L 8.09375 -11.03125 L 10.421875 -11.03125 Z M 10.421875 0 "/></g></g></g><g fill="#000000" fill-opacity="1"><g transform="translate(226.827751, 212.003066)"><g><path d="M 10.375 -11.03125 L 10.375 -3.890625 C 10.375 -3.078125 10.1875 -2.363281 9.8125 -1.75 C 9.445312 -1.132812 8.921875 -0.660156 8.234375 -0.328125 C 7.546875 -0.00390625 6.734375 0.15625 5.796875 0.15625 C 4.378906 0.15625 3.273438 -0.207031 2.484375 -0.9375 C 1.703125 -1.664062 1.3125 -2.660156 1.3125 -3.921875 L 1.3125 -11.03125 L 3.640625 -11.03125 L 3.640625 -4.28125 C 3.640625 -3.425781 3.8125 -2.800781 4.15625 -2.40625 C 4.5 -2.007812 5.066406 -1.8125 5.859375 -1.8125 C 6.617188 -1.8125 7.171875 -2.007812 7.515625 -2.40625 C 7.859375 -2.8125 8.03125 -3.441406 8.03125 -4.296875 L 8.03125 -11.03125 Z M 10.375 -11.03125 "/></g></g></g><g fill="#000000" fill-opacity="1"><g transform="translate(238.499046, 212.003066)"><g><path d="M 5.640625 0 L 3.3125 0 L 3.3125 -9.078125 L 0.3125 -9.078125 L 0.3125 -11.03125 L 8.640625 -11.03125 L 8.640625 -9.078125 L 5.640625 -9.078125 Z M 5.640625 0 "/></g></g></g></svg>